<?xml version="1.0" encoding="utf-8"?>
<svg viewBox="0 0 690 511" xmlns="http://www.w3.org/2000/svg">
  <path id="Zaznaczenie #1" stroke="black" stroke-width="1" d="M 28.017 1 C 28.017 1 30.017 1 30.017 1 C 41.007 17.28 52.577 27.2 73.017 27 C 81.017 26.92 90.757 23.57 98.017 25 C 98.017 25 97.017 29 97.017 29 C 97.017 29 94.017 31 94.017 31 C 94.017 31 96.017 34 96.017 34 C 96.017 34 99.017 34 99.017 34 C 84.887 43.42 62.247 60.84 45.017 60.82 C 40.997 60.82 36.687 59.54 33.017 58 C 33.027 73.87 36.947 87.65 34.017 104 C 34.017 104 45.017 98.48 45.017 98.48 C 54.057 94.19 63.527 90.51 73.017 87.35 C 113.117 74.04 164.817 65.83 207.017 61.93 C 207.017 61.93 239.017 58.97 239.017 58.97 C 239.017 58.97 247.017 58.97 247.017 58.97 C 252.867 58.27 262.587 56.84 268.017 58.97 C 268.017 58.97 249.017 60 249.017 60 C 249.017 60 254.437 84 254.437 84 C 254.437 84 268.367 147 268.367 147 C 268.367 147 273.387 170 273.387 170 C 274.407 174.13 276.197 178.82 275.017 183 C 275.017 183 241.437 93 241.437 93 C 241.437 93 233.207 71 233.207 71 C 232.117 68.15 231.007 63.8 227.887 62.78 C 225.917 61.9 222.207 62.72 220.017 62.78 C 220.017 62.78 198.017 65.87 198.017 65.87 C 198.017 65.87 144.017 76.13 144.017 76.13 C 144.017 76.13 112.017 84 112.017 84 C 112.017 84 122.767 105 122.767 105 C 122.767 105 157.267 172 157.267 172 C 157.267 172 167.777 193 167.777 193 C 169.117 195.63 171.097 200.31 174.197 201.1 C 176.157 201.61 180.887 200.14 183.017 199.65 C 183.017 199.65 203.017 195.4 203.017 195.4 C 216.747 192.65 259.587 187.17 273.017 187 C 279.647 186.91 288.837 184.55 295.017 187 C 287.547 187 268.727 188.09 262.017 190 C 266.747 191.34 281.687 201.18 295.017 205.09 C 328.847 215.02 358.037 214.36 391.017 201.81 C 399.047 198.75 408.017 195 415.017 190 C 415.017 190 395.017 188.09 395.017 188.09 C 395.017 188.09 375.017 186 375.017 186 C 399.387 186 444.967 191.1 469.017 196 C 469.017 196 499.017 203.15 499.017 203.15 C 505.697 204.98 509.897 207.64 517.017 206.56 C 540.107 203.07 580.207 191.51 601.017 181.24 C 612.317 175.67 624.197 168.66 631.387 158 C 637.167 149.43 635.357 141.09 629.797 133 C 622.187 121.93 609.587 114.16 598.017 107.73 C 594.587 105.82 582.507 98.87 579.057 99.66 C 576.517 100.23 573.707 104.05 572.017 106 C 572.017 106 555.887 125 555.887 125 C 555.887 125 514.427 174 514.427 174 C 508.607 180.93 497.607 195.27 491.017 200 C 491.017 200 543.687 121 543.687 121 C 543.687 121 563.017 91 563.017 91 C 563.017 91 526.017 80.15 526.017 80.15 C 526.017 80.15 470.017 68.2 470.017 68.2 C 470.017 68.2 446.017 64.34 446.017 64.34 C 446.017 64.34 435.437 64.34 435.437 64.34 C 435.437 64.34 430.817 73 430.817 73 C 430.817 73 421.877 95 421.877 95 C 421.877 95 398.217 155 398.217 155 C 398.217 155 386.017 185 386.017 185 C 386.017 185 392.597 155 392.597 155 C 392.597 155 406.887 93 406.887 93 C 406.887 93 412.237 70 412.237 70 C 412.707 67.62 414.157 63.67 412.237 61.6 C 410.587 59.63 406.437 60.07 404.017 59.96 C 401.027 59.83 388.107 58.83 386.017 58 C 386.017 58 444.017 61.83 444.017 61.83 C 481.527 65.42 519.537 70.28 556.017 80.15 C 556.017 80.15 592.017 91.45 592.017 91.45 C 592.017 91.45 615.017 101 615.017 101 C 612.547 92.3 615.317 82.84 615.927 74 C 615.927 74 617.017 24 617.017 24 C 617.017 22.06 616.767 18.28 618.007 16.74 C 621.267 12.71 633.137 15.96 637.017 17.78 C 648.247 23.05 658.427 32.83 668.017 40.75 C 668.017 40.75 684.017 53 684.017 53 C 681.297 55.19 682.887 56 685.017 58 C 666.287 57.14 651.007 45.15 635.017 50.36 C 630.517 51.83 623.107 55.44 621.207 60.01 C 620.107 62.67 621.367 69.95 621.737 73 C 621.737 73 623.107 97 623.107 97 C 622.987 99.14 622.377 103.96 623.107 105.63 C 623.107 105.63 639.007 119.01 639.007 119.01 C 646.847 126.87 653.217 138.55 652.647 150 C 652.287 157.18 650.617 162.71 647.157 169 C 645.627 171.76 641.407 177.6 640.887 180 C 640.887 180 643.017 203 643.017 203 C 643.017 203 642.477 213 642.477 213 C 643.147 218.4 646.107 221.28 644.847 233 C 643.817 242.59 639.627 246.1 638.427 251 C 638.427 251 636.927 268 636.927 268 C 636.927 268 635.017 294 635.017 294 C 635.017 294 634.017 313 634.017 313 C 634.017 313 633.017 326 633.017 326 C 633.017 326 633.017 361 633.017 361 C 633.017 361 633.697 372 633.697 372 C 632.917 381.79 629.577 389.95 632.017 400 C 632.017 400 624.017 392 624.017 392 C 617.377 405.62 603.887 416.45 591.017 423.99 C 568.577 437.13 537.297 448.05 512.017 454.37 C 502.817 456.67 483.777 461.6 475.017 462 C 475.017 462 476.017 480 476.017 480 C 476.047 482.59 476.177 486.64 475.277 489 C 472.407 496.54 461.447 503.06 454.017 505.48 C 435.327 511.58 402.307 509.71 390.167 491.96 C 386.827 487.09 388.567 484.26 388.927 479 C 388.927 479 390.017 452 390.017 452 C 361.247 448.12 355.717 444.95 324.017 445 C 324.017 445 290.017 448.43 290.017 448.43 C 290.017 448.43 268.057 452 268.057 452 C 268.057 452 268.057 467 268.057 467 C 268.057 467 269.017 477 269.017 477 C 269.017 477 269.017 482 269.017 482 C 269.017 484.12 269.117 486.99 268.457 488.99 C 266.247 495.64 255.377 501.57 249.017 503.64 C 231.217 509.45 204.427 508.06 190.317 494.54 C 188.327 492.63 185.887 489.69 185.087 487 C 185.087 487 185.087 463 185.087 463 C 167.837 460.72 144.757 454.74 128.017 449.72 C 99.807 441.26 65.497 428.61 44.107 407.83 C 38.997 402.87 36.097 397.58 32.017 392 C 32.017 392 25.017 400 25.017 400 C 26.807 386.41 23.917 383.73 23.107 372 C 23.107 372 24.017 356 24.017 356 C 24.017 356 24.017 334 24.017 334 C 24.017 334 23.017 313 23.017 313 C 23.017 313 22.017 297 22.017 297 C 22.017 297 20.017 274 20.017 274 C 20.017 274 20.017 266 20.017 266 C 19.497 262.35 18.897 253.98 17.917 251 C 15.327 243.18 10.677 235.66 11.337 227 C 11.337 227 14.047 208 14.047 208 C 13.467 199.78 13.087 201.76 14.047 193 C 14.507 190.33 15.847 185.33 15.257 183 C 14.557 180.28 10.357 175.77 8.567 173 C 4.677 167 1.377 159.2 1.057 152 C 0.477 139.11 4.347 129.51 13.187 120.04 C 16.277 116.73 24.497 111.14 25.827 107.96 C 26.707 105.86 25.037 96.58 25.017 93 C 25.017 93 28.017 49 28.017 49 C 28.017 49 28.017 1 28.017 1 Z M 100.017 32 C 100.017 32 101.017 32 101.017 32 C 101.017 32 100.017 33 100.017 33 C 100.017 33 100.017 32 100.017 32 Z M 676.017 49 C 676.017 49 675.017 49 675.017 49 C 675.017 49 676.017 50 676.017 50 C 676.017 50 676.017 49 676.017 49 Z M 681.017 52 C 681.017 52 680.017 52 680.017 52 C 680.017 52 681.017 53 681.017 53 C 681.017 53 681.017 52 681.017 52 Z M 680.017 53 C 680.017 53 679.017 53 679.017 53 C 679.017 53 680.017 54 680.017 54 C 680.017 54 680.017 53 680.017 53 Z M 685.017 53 C 685.017 53 686.017 53 686.017 53 C 686.017 53 685.017 54 685.017 54 C 685.017 54 685.017 53 685.017 53 Z M 269.017 57 C 269.017 57 285.017 58 285.017 58 C 285.017 58 269.017 57 269.017 57 Z M 287.017 57 C 287.017 57 288.017 57 288.017 57 C 288.017 57 287.017 58 287.017 58 C 287.017 58 287.017 57 287.017 57 Z M 365.017 57 C 365.017 57 385.017 58 385.017 58 C 385.017 58 365.017 57 365.017 57 Z M 96.017 90 C 87.097 92.35 69.517 100 61.017 104.25 C 53.327 108.09 46.007 112.4 39.017 117.43 C 34.337 120.79 29.997 124.66 26.197 129 C 23.977 131.54 22.337 133.93 20.917 137 C 11.747 156.91 31.627 170.63 47.017 178.88 C 67.957 190.12 94.867 197.55 118.017 202.88 C 118.017 202.88 151.017 208.87 151.017 208.87 C 155.227 208.71 166.407 204.54 171.017 203 C 171.017 203 163.437 190 163.437 190 C 163.437 190 148.017 167 148.017 167 C 148.017 167 96.017 90 96.017 90 Z M 296.017 185 C 296.017 185 303.017 186 303.017 186 C 303.017 186 296.017 185 296.017 185 Z M 630.017 189 C 630.017 189 609.017 202.4 609.017 202.4 C 599.467 208.05 571.427 220.56 561.017 223 C 561.017 223 563.977 246 563.977 246 C 563.977 246 561.017 272 561.017 272 C 574.067 269.37 595.637 259.97 607.017 252.94 C 611.347 250.26 618.717 245.52 620.997 241 C 622.327 238.36 622.837 228.43 623.187 225 C 624.517 211.63 624.707 201.52 630.017 189 Z M 262.017 190 C 262.017 190 255.017 191 255.017 191 C 255.017 191 262.017 190 262.017 190 Z M 421.017 191 C 421.017 191 416.017 192 416.017 192 C 416.017 192 421.017 191 421.017 191 Z M 30.017 193 C 29.527 195.71 31.147 203.66 31.597 207 C 31.597 207 33.947 230 33.947 230 C 34.357 234.5 34.447 239.26 37.327 242.99 C 40.387 246.94 47.627 251.54 52.017 254.18 C 63.157 260.86 83.347 269.11 96.017 272 C 96.017 272 92.767 245 92.767 245 C 92.537 240.28 93.537 235.64 94.137 231 C 94.567 229.08 95.227 226.41 94.137 224.7 C 92.897 223.14 89.787 222.27 88.017 221.67 C 88.017 221.67 74.017 216.42 74.017 216.42 C 58.687 210 43.257 203.22 30.017 193 Z M 553.017 226 C 553.017 226 513.017 237.12 513.017 237.12 C 475.327 246.05 436.597 251.44 398.017 254.09 C 398.017 254.09 367.017 256 367.017 256 C 367.017 256 351.017 257 351.017 257 C 351.017 257 304.017 257 304.017 257 C 304.017 257 289.017 256 289.017 256 C 289.017 256 264.017 255 264.017 255 C 264.017 255 218.017 250.72 218.017 250.72 C 198.197 248.27 168.177 243.66 149.017 239.12 C 149.017 239.12 131.017 234.85 131.017 234.85 C 131.017 234.85 105.017 228 105.017 228 C 106.147 234.05 108.057 235.93 109.417 241 C 109.417 241 111.937 261 111.937 261 C 112.187 264.24 112.587 274.31 114.617 276.42 C 116.757 278.64 130.347 281.07 134.017 281.8 C 134.017 281.8 185.017 290.15 185.017 290.15 C 185.017 290.15 239.017 296 239.017 296 C 239.017 296 248.017 296 248.017 296 C 248.017 296 287.017 298 287.017 298 C 287.017 298 304.017 299 304.017 299 C 304.017 299 352.017 299 352.017 299 C 352.017 299 367.017 298 367.017 298 C 367.017 298 382.017 298 382.017 298 C 382.017 298 396.017 297 396.017 297 C 396.017 297 400.017 297 400.017 297 C 400.017 297 410.017 296.09 410.017 296.09 C 441.147 293.96 472.207 291.1 503.017 285.75 C 503.017 285.75 530.017 280.35 530.017 280.35 C 532.597 279.77 539.747 278.5 541.507 277.07 C 544.537 274.6 544.057 266.9 544.597 263 C 544.597 263 547.307 241 547.307 241 C 547.307 241 553.017 226 553.017 226 Z M 619.017 269 C 603.737 279.19 595.007 284.33 578.017 291.57 C 573.947 293.31 561.057 297.05 559.037 300.27 C 557.837 302.19 557.927 307.43 557.597 310 C 557.597 310 555.017 340 555.017 340 C 568.397 337.93 588.727 328.2 600.017 320.67 C 606.747 316.18 613.537 310.73 616.747 303 C 618.247 299.36 617.597 295.81 617.757 292 C 617.757 292 619.017 269 619.017 269 Z M 39.017 270 C 37.037 274.99 38.947 286.74 39.017 293 C 39.287 315.69 64.897 326.77 83.017 334 C 88.177 336.06 95.687 339.04 101.017 340 C 101.017 340 99.187 312 99.187 312 C 98.867 308.72 99.307 303.2 97.617 300.41 C 95.597 297.11 83.977 293.81 80.017 292.13 C 62.597 284.71 54.787 280.61 39.017 270 Z M 182.017 320 C 161.707 318.34 135.907 309.49 116.017 305 C 116.017 305 119.017 346 119.017 346 C 119.017 346 151.017 352.58 151.017 352.58 C 151.017 352.58 183.017 358 183.017 358 C 183.017 358 182.017 320 182.017 320 Z M 541.017 305 C 518.957 309.98 497.557 317.01 475.017 320 C 475.017 320 475.017 340 475.017 340 C 475.017 340 474.017 358 474.017 358 C 474.017 358 507.017 352.55 507.017 352.55 C 507.017 352.55 538.017 346 538.017 346 C 538.017 346 541.017 305 541.017 305 Z M 473.017 306 C 473.017 306 439.017 309.83 439.017 309.83 C 439.017 309.83 379.017 315 379.017 315 C 379.017 315 358.017 316 358.017 316 C 358.017 316 289.017 316 289.017 316 C 289.017 316 274.017 315 274.017 315 C 274.017 315 244.017 313.09 244.017 313.09 C 244.017 313.09 224.017 311.83 224.017 311.83 C 224.017 311.83 188.017 308 188.017 308 C 188.017 308 188.017 340 188.017 340 C 188.017 340 189.017 357 189.017 357 C 189.017 357 189.017 437 189.017 437 C 189.017 437 187.977 452 187.977 452 C 187.977 452 187.977 469 187.977 469 C 187.977 469 187.017 479 187.017 479 C 186.887 490.89 191.587 494.62 202.017 499.73 C 214.197 505.69 234.387 505.14 247.017 500.7 C 252.167 498.89 261.247 493.74 263.847 488.91 C 266.297 484.35 263.207 468.11 263.027 462 C 263.027 462 261.187 440 261.187 440 C 261.187 440 260.017 421 260.017 421 C 260.017 421 259.017 399 259.017 399 C 259.017 399 258.017 382 258.017 382 C 258.017 382 278.017 383.83 278.017 383.83 C 278.017 383.83 309.017 386 309.017 386 C 309.017 386 319.017 386.96 319.017 386.96 C 319.017 386.96 336.017 386.96 336.017 386.96 C 336.017 386.96 364.017 385.09 364.017 385.09 C 364.017 385.09 401.017 381 401.017 381 C 401.017 381 400.017 412 400.017 412 C 400.017 412 399.017 430 399.017 430 C 399.017 430 397.737 453 397.737 453 C 397.737 453 396.927 467 396.927 467 C 396.927 467 396.017 479 396.017 479 C 395.977 482.2 395.267 486.02 396.997 488.83 C 399.427 492.77 407.637 497.34 412.017 498.84 C 424.047 503.24 442.047 503.24 454.017 498.84 C 464.687 494.79 469.997 490.8 470.017 479 C 470.017 479 470.017 416 470.017 416 C 470.017 416 471.017 399 471.017 399 C 471.017 399 471.017 376 471.017 376 C 471.017 376 472.057 359 472.057 359 C 472.057 359 472.057 343 472.057 343 C 472.057 343 473.017 331 473.017 331 C 473.017 331 473.017 306 473.017 306 Z M 42.017 333 C 40.237 337.5 40.957 352.39 41.017 358 C 41.107 365.55 43.097 377.62 47.147 384 C 54.707 395.92 70.537 403.68 83.017 409.3 C 88.507 411.78 96.137 414.94 102.017 416 C 102.017 416 103.017 401 103.017 401 C 103.017 401 103.017 375 103.017 375 C 103.017 372.7 103.227 369.26 101.997 367.27 C 100.147 364.3 88.727 360.44 85.017 358.85 C 70.217 352.5 53.917 343.9 42.017 333 Z M 616.017 333 C 616.017 333 602.017 342.56 602.017 342.56 C 591.687 349.14 581.307 354.84 570.017 359.58 C 566.787 360.93 556.707 364.07 555.037 366.5 C 553.787 368.32 554.017 371.83 554.017 374 C 554.017 374 554.017 416 554.017 416 C 559.947 415.39 565.517 412.8 571.017 410.6 C 586.987 404.21 607.957 393.56 613.247 376 C 617.147 363.06 613.517 346.95 616.017 333 Z M 184.017 387 C 184.017 387 135.017 376.12 135.017 376.12 C 135.017 376.12 120.017 372 120.017 372 C 120.017 372 120.017 406 120.017 406 C 120.017 406 118.017 422 118.017 422 C 118.017 422 150.017 428.8 150.017 428.8 C 150.017 428.8 185.017 435 185.017 435 C 185.017 435 185.017 407 185.017 407 C 185.017 407 184.017 387 184.017 387 Z M 536.017 372 C 536.017 372 498.017 381.99 498.017 381.99 C 498.017 381.99 476.307 386.72 476.307 386.72 C 473.417 388.28 474.017 392.22 474.017 395 C 474.017 395 474.017 434 474.017 434 C 474.017 434 519.017 426.35 519.017 426.35 C 519.017 426.35 539.017 422 539.017 422 C 539.017 422 537.077 414 537.077 414 C 537.077 414 537.077 407 537.077 407 C 537.077 407 536.017 397 536.017 397 C 536.017 397 536.017 372 536.017 372 Z" style=""/>
</svg>