<?xml version="1.0" standalone="no"?>
<!DOCTYPE svg PUBLIC "-//W3C//DTD SVG 20010904//EN"
 "http://www.w3.org/TR/2001/REC-SVG-20010904/DTD/svg10.dtd">
<svg version="1.0" xmlns="http://www.w3.org/2000/svg"
 width="4000.000000pt" height="4000.000000pt" viewBox="0 0 4000.000000 4000.000000"
 preserveAspectRatio="xMidYMid meet">

<g transform="translate(0.000000,4000.000000) scale(0.100000,-0.100000)"
fill="#000000" stroke="none">
<path d="M16304 29989 c-140 -23 -266 -91 -379 -204 -138 -137 -207 -304 -206
-498 1 -330 206 -598 530 -694 47 -14 122 -17 474 -20 l417 -4 0 -4180 0
-4180 -1884 -2822 c-1036 -1552 -1913 -2871 -1950 -2930 -407 -660 -546 -1494
-375 -2241 94 -409 282 -799 551 -1138 104 -132 324 -352 455 -456 417 -330
903 -533 1448 -604 148 -19 9082 -19 9230 0 545 71 1031 274 1448 604 131 104
351 324 455 456 527 665 728 1494 571 2347 -68 371 -210 736 -410 1055 -82
131 -788 1191 -2686 4034 l-1133 1696 0 4179 0 4180 418 4 c351 3 426 6 473
20 324 96 530 365 530 692 0 197 -68 362 -206 500 -91 91 -174 143 -290 183
l-80 27 -3675 1 c-2023 1 -3698 -2 -3726 -7z m5126 -5738 c0 -4720 -4 -4375
57 -4528 18 -46 192 -316 543 -843 284 -426 519 -780 523 -787 5 -7 1 -10 -10
-7 -10 2 -87 20 -172 39 -84 20 -235 49 -335 67 -161 27 -209 31 -438 35 -484
9 -819 -35 -1228 -164 -214 -67 -304 -102 -537 -209 -266 -122 -444 -178 -698
-221 -155 -25 -524 -25 -680 0 -345 57 -645 171 -922 350 l-113 72 524 786
c287 431 537 814 554 850 17 36 39 92 49 125 17 56 18 268 21 4407 l2 4347
1430 0 1430 0 0 -4319z m-3384 -8561 c255 -65 461 -273 519 -525 21 -88 21
-242 0 -330 -45 -196 -196 -386 -377 -474 -192 -94 -441 -95 -627 -2 -199 98
-338 270 -388 480 -22 94 -20 247 6 344 37 143 129 285 239 372 70 56 196 119
277 139 91 22 256 20 351 -4z m-1458 -2136 c44 -8 118 -35 172 -61 82 -39 108
-58 185 -137 145 -146 208 -295 208 -496 0 -130 -18 -204 -80 -330 -65 -134
-169 -238 -303 -303 -127 -63 -201 -81 -330 -80 -121 0 -201 18 -305 68 -192
91 -342 276 -389 475 -23 94 -20 249 4 345 34 135 82 218 185 321 116 117 221
172 390 208 49 10 192 5 263 -10z"/>
</g>
</svg>
