<?xml version="1.0" encoding="utf-8"?>
<svg viewBox="0 0 755 717" xmlns="http://www.w3.org/2000/svg">
  <path id="Zaznaczenie" stroke="black" stroke-width="1" d="M 376 1 C 379.7 3.77 382.35 12.54 384.28 17 C 384.28 17 401.85 58 401.85 58 C 401.85 58 458.72 192 458.72 192 C 458.72 192 474.72 230 474.72 230 C 476.25 233.56 480.34 244.23 482.64 246.49 C 485.78 249.58 498.29 249.74 503 250.09 C 503 250.09 556 255.17 556 255.17 C 556 255.17 684 267.83 684 267.83 C 684 267.83 724 271.83 724 271.83 C 732.8 272.67 743.6 272.54 752 275 C 752 275 711 311.16 711 311.16 C 711 311.16 607 401.87 607 401.87 C 607 401.87 567 436.72 567 436.72 C 563.29 439.94 552.88 447.88 551.46 452 C 550.34 455.25 553.71 467.06 554.58 471 C 554.58 471 566 521 566 521 C 566 521 595.12 648 595.12 648 C 595.12 648 605.35 693 605.35 693 C 605.35 693 610 713 610 713 C 603.19 711.38 595.13 705.68 589 702 C 589 702 554 681 554 681 C 554 681 437 611.4 437 611.4 C 437 611.4 395 586.2 395 586.2 C 391.54 584.13 380.32 576.63 377 576.63 C 373.44 576.63 363.59 583.64 360 585.72 C 360 585.72 317 611.4 317 611.4 C 317 611.4 200 681 200 681 C 200 681 167 700.68 167 700.68 C 160.66 704.63 151.04 711.33 144 713 C 144 713 164.42 624 164.42 624 C 164.42 624 188 521 188 521 C 188 521 199.42 471 199.42 471 C 200.29 467.06 203.66 455.25 202.54 452 C 201.14 447.93 190.7 439.89 187 436.73 C 187 436.73 147 401.87 147 401.87 C 147 401.87 43 311.16 43 311.16 C 43 311.16 2 275 2 275 C 8.51 273.14 15.33 273.47 22 272.83 C 22 272.83 70 268.83 70 268.83 C 70 268.83 122 264.17 122 264.17 C 122 264.17 142 262.83 142 262.83 C 142 262.83 195 258.09 195 258.09 C 195 258.09 225 255.83 225 255.83 C 225 255.83 245 254.01 245 254.01 C 249.14 253.89 267.97 252.72 270.61 250.98 C 273.65 248.97 277.8 236.87 279.42 233 C 279.42 233 298.28 188 298.28 188 C 298.28 188 350.01 64 350.01 64 C 350.01 64 376 1 376 1 Z" style=""/>
</svg>