<?xml version="1.0" encoding="UTF-8" standalone="no"?>
<!DOCTYPE svg PUBLIC "-//W3C//DTD SVG 20010904//EN"
              "http://www.w3.org/TR/2001/REC-SVG-20010904/DTD/svg10.dtd">

<svg xmlns="http://www.w3.org/2000/svg"
     width="321.454mm" height="321.101mm"
     viewBox="0 0 911 910">
  <path id="pokeball_bialy"
        fill="none" stroke="black" stroke-width="1"
        d="M 440.00,338.42
           C 455.71,336.51 475.91,338.24 491.00,343.03
             555.48,363.46 588.89,434.25 565.68,497.00
             561.06,509.49 552.98,523.25 543.91,533.00
             532.63,545.13 522.86,553.32 508.00,560.75
             487.25,571.13 470.78,573.26 448.00,573.00
             441.86,572.92 433.02,571.34 427.00,569.87
             388.93,560.57 356.87,532.02 343.70,495.00
             335.22,471.19 335.54,445.08 342.72,421.00
             351.67,390.98 373.92,363.85 402.00,349.81
             414.08,343.76 426.72,340.43 440.00,338.42 Z
           M 448.00,397.29
           C 431.99,399.73 418.74,406.00 408.52,419.00
             401.02,428.53 398.26,437.20 396.85,449.00
             392.77,483.09 418.17,513.59 453.00,514.00
             462.30,514.10 470.38,512.97 479.00,509.26
             516.99,492.90 525.87,442.20 496.83,413.17
             483.92,400.26 465.78,395.62 448.00,397.29 Z
           M 64.00,490.12
           C 64.00,490.12 90.00,490.12 90.00,490.12
             90.00,490.12 136.00,490.12 136.00,490.12
             136.00,490.12 278.00,490.12 278.00,490.12
             280.78,490.00 284.42,489.79 286.89,491.17
             291.76,493.90 294.70,508.40 296.69,514.00
             303.50,533.12 314.27,550.63 327.43,566.00
             353.66,596.63 391.24,616.68 431.00,622.57
             442.65,624.30 454.25,624.13 466.00,624.00
             474.21,623.90 487.89,621.39 496.00,619.37
             534.72,609.74 567.74,586.86 591.63,555.00
             599.78,544.12 607.73,529.73 612.58,517.00
             612.58,517.00 620.72,494.11 620.72,494.11
             623.95,489.65 628.11,490.01 633.00,490.00
             633.00,490.00 803.00,490.00 803.00,490.00
             803.00,490.00 846.00,490.00 846.00,490.00
             853.96,490.15 854.15,492.75 853.99,500.00
             853.76,510.06 848.39,537.43 845.88,548.00
             839.41,575.25 830.47,601.76 818.26,627.00
             799.05,666.69 776.04,700.66 745.91,733.00
             736.89,742.68 727.01,751.51 717.00,760.13
             638.50,827.73 540.63,858.20 438.00,857.00
             438.00,857.00 427.00,856.04 427.00,856.04
             300.75,850.53 175.55,770.37 111.00,663.00
             87.44,623.81 70.62,579.84 61.60,535.00
             61.60,535.00 56.73,507.00 56.73,507.00
             55.52,498.53 54.19,492.92 64.00,490.12 Z" />
</svg>
