<?xml version="1.0" encoding="UTF-8" standalone="no"?>
<!DOCTYPE svg PUBLIC "-//W3C//DTD SVG 20010904//EN"
              "http://www.w3.org/TR/2001/REC-SVG-20010904/DTD/svg10.dtd">

<svg xmlns="http://www.w3.org/2000/svg"
     width="321.454mm" height="321.101mm"
     viewBox="0 0 911 910">
  <path id="pokeball_czerwony"
        fill="none" stroke="black" stroke-width="1"
        d="M 440.00,54.42
           C 452.49,52.90 465.53,54.06 478.00,55.00
             478.00,55.00 487.00,55.00 487.00,55.00
             487.00,55.00 528.00,60.58 528.00,60.58
             635.48,79.96 731.10,145.25 791.33,236.00
             818.14,276.39 837.83,324.47 847.40,372.00
             847.40,372.00 852.27,400.00 852.27,400.00
             852.27,400.00 853.84,414.98 853.84,414.98
             852.93,421.64 843.10,420.99 838.00,421.00
             838.00,421.00 636.00,421.00 636.00,421.00
             630.71,420.99 625.24,421.21 621.42,416.86
             618.68,413.75 613.82,397.35 611.58,392.00
             604.92,376.13 598.19,364.61 587.58,351.00
             563.42,320.01 528.67,297.23 490.00,289.45
             481.87,287.81 474.20,287.47 466.00,286.91
             466.00,286.91 458.00,286.08 458.00,286.08
             458.00,286.08 449.00,286.96 449.00,286.96
             400.13,289.09 357.15,309.34 325.44,347.00
             315.52,358.78 305.49,374.81 299.43,389.00
             296.11,396.76 292.45,412.67 285.96,417.49
             281.94,420.48 269.25,420.99 264.00,421.00
             264.00,421.00 71.00,421.00 71.00,421.00
             67.33,420.99 61.45,421.21 58.74,418.30
             56.22,415.61 56.93,408.44 57.43,405.00
             57.43,405.00 63.79,371.00 63.79,371.00
             74.57,321.03 93.60,272.60 122.00,230.00
             175.35,149.98 259.85,94.04 352.00,68.42
             372.63,62.69 393.75,58.82 415.00,56.28
             415.00,56.28 440.00,54.42 440.00,54.42 Z" />
</svg>
