<?xml version="1.0" encoding="utf-8"?>
<svg viewBox="0 0 514 528" xmlns="http://www.w3.org/2000/svg">
  <path id="Zaznaczenie" stroke="black" stroke-width="1" d="M 35 1 C 35 1 85 28.58 85 28.58 C 98.86 36.41 141.09 56.77 156 62.8 C 156 62.8 184 74.6 184 74.6 C 187.95 76.21 193.74 79.36 198 78.69 C 203.73 77.78 208.23 70.98 212.04 67 C 212.04 67 230 48.99 230 48.99 C 234.08 44.96 236.74 41.49 242 39 C 242 39 240 73 240 73 C 240 73 281 30 281 30 C 281 30 297 14 297 14 C 297 14 297 49 297 49 C 297 49 298 70 298 70 C 298 70 330 53 330 53 C 330 53 320 79 320 79 C 320 79 359 62.69 359 62.69 C 359 62.69 423 29.74 423 29.74 C 437.44 22.29 463.34 5.77 478 3 C 477.76 13.8 467.31 39.67 463.22 51 C 463.22 51 442.34 111 442.34 111 C 442.34 111 435.19 132 435.19 132 C 435.19 132 423 167 423 167 C 421.71 170.72 418.4 178.31 419.24 182 C 420.26 186.48 428.48 192.53 432 196 C 442.82 206.7 448.92 213.71 457.85 226 C 480.04 256.55 494.14 291.91 504.42 328 C 508.44 342.11 513.42 369.93 510 384 C 510 384 496 375 496 375 C 495.5 380.54 492.05 393.51 489 398 C 489 398 477 381 477 381 C 477 381 463 396 463 396 C 453.11 372.69 447.79 358.49 426 343 C 423.78 348.17 415.21 366.72 414.7 371 C 414.27 374.56 416.32 380.42 417.27 384 C 417.27 384 422.79 407 422.79 407 C 428.26 432.71 427.96 442.43 428 468 C 428.01 473.46 428.49 479.87 430.47 485 C 433.59 493.12 438.04 496.29 440 509 C 440 509 410 503 410 503 C 409.26 506.29 406.71 518.34 404.35 520 C 401.98 521.68 398.32 520.27 396 519.18 C 396 519.18 378 509 378 509 C 378 509 369 526 369 526 C 361.15 522.36 353.77 514.27 347.91 508 C 347.91 508 334.04 494 334.04 494 C 334.04 494 321 480 321 480 C 317.12 476.12 307.98 465.09 302 466.7 C 298.85 467.55 295.92 471.25 294.41 474 C 294.41 474 284.57 499 284.57 499 C 283.08 502.49 280.81 508.06 276.96 509.36 C 271.32 511.27 262.4 503.14 258 500 C 258 500 229 477 229 477 C 222.66 471.88 218.83 466.97 210 467.08 C 200.36 467.2 193.78 478.43 187.83 485 C 187.83 485 164 509 164 509 C 157.63 515.37 152.12 521.82 144 526 C 144 526 136 509 136 509 C 128.27 511.44 115.73 522.21 109.22 520.67 C 104.5 519.55 104.34 507.17 104 503 C 104 503 73 509 73 509 C 74.68 499.69 82.23 488.91 84.58 474 C 85.58 467.51 84.41 466.01 84.58 461 C 85.1 447.23 85.79 433.63 88.08 420 C 88.08 420 94.47 389 94.47 389 C 96.05 382.68 98.41 377.69 97.91 371 C 97.36 363.82 90.97 350.01 88 343 C 68.02 354.65 58.02 374.97 51 396 C 51 396 36 381 36 381 C 36 381 24 398 24 398 C 24 398 17 375 17 375 C 11.52 378.15 7.31 383 1 384 C 1 384 5.8 342 5.8 342 C 12.3 308.32 26.06 273.43 43.6 244 C 50.68 232.13 66.56 210.8 76.04 201 C 83.33 193.47 93.07 189.75 94.06 180.17 C 94.82 172.79 91.57 165.75 89.05 159 C 89.05 159 77.42 127 77.42 127 C 77.42 127 48.66 45 48.66 45 C 44.72 33.66 35.89 11.86 35 1 Z M 313 213 C 307.71 215.07 299.25 222.19 295.11 226.29 C 293.05 228.32 290.94 230.84 291.84 233.95 C 293.5 239.62 307.97 241.17 313 240.82 C 318.57 240.42 326.85 239.11 332 237.07 C 347.69 230.89 358.31 216.59 360.85 200 C 360.85 200 360.85 189 360.85 189 C 360.99 185.32 361.28 177.79 356.87 176.3 C 353.6 175.19 349.28 179.78 347 181.73 C 347 181.73 321.6 204.17 321.6 204.17 C 319.17 207.65 320.05 215.68 320 220 C 319.94 224.53 319.57 225.7 319 230 C 311.66 227.57 313 219.36 313 213 Z M 200 215 C 200 217.36 200.53 230.31 196.17 229.38 C 194.32 228.99 193.71 225.52 193.44 224 C 191.89 215.18 195.63 212.2 192.26 207.09 C 190.58 204.54 183.69 199.18 181 196.87 C 175.73 192.34 160.02 178.36 155 176 C 143.26 197.22 156.94 224.95 177 235.51 C 184.42 239.41 195.66 241.09 204 241 C 208.61 240.94 224.77 239.83 222.34 232.16 C 221.68 230.07 218.64 227.56 217 226.13 C 212.34 222.1 205.92 216.61 200 215 Z" style=""/>
</svg>