<?xml version="1.0" encoding="utf-8"?>
<svg viewBox="0 0 912 910" xmlns="http://www.w3.org/2000/svg">
  <path id="kontur" fill="none" stroke="black" stroke-width="1" d="M 447 0 C 447 0 478 0.58 478 0.58 C 478 0.58 490 1.49 490 1.49 C 520.86 3.61 551.21 9 581 17.44 C 730 59.66 845.55 173.74 891.02 321.58 C 900.72 353.11 906.79 385.71 909.09 418.58 C 909.09 418.58 910 428.58 910 428.58 C 910 428.58 911 460.58 911 460.58 C 911 460.58 910 479.58 910 479.58 C 910 479.58 908.17 502.58 908.17 502.58 C 904.41 540.19 895.93 577.06 882.95 612.58 C 832.96 749.36 719.8 853.31 580 893.15 C 550.33 901.61 519.72 906.56 489 908.67 C 489 908.67 477 909.58 477 909.58 C 477 909.58 433 909.58 433 909.58 C 433 909.58 423 908.67 423 908.67 C 384.44 906.02 346.73 898.82 310 886.58 C 247.55 865.76 190.16 831.36 142 786.49 C 69.8 719.22 21.73 627.69 5.43 530.58 C 3.45 518.75 0.02 490.02 0 478.58 C 0 478.58 0 430.58 0 430.58 C 0 430.58 0.91 420.58 0.91 420.58 C 0.91 420.58 6.58 374.58 6.58 374.58 C 13.35 337.05 24.38 300.28 40.31 265.58 C 94.73 147.04 197.01 56.94 322 19.3 C 351.29 10.48 381.55 4.65 412 1.75 C 412 1.75 430 0.58 430 0.58 C 435.7 0.55 441.34 0.81 447 0 Z M 448 52.86 C 441.65 53.78 440.14 53.51 434 53.58 C 434 53.58 410 55.74 410 55.74 C 389.8 57.91 369.57 62.38 350 67.73 C 264.48 91.13 175.46 148.71 125.67 222.58 C 92.58 271.67 76.97 312.56 63.13 369.58 C 63.13 369.58 56.73 404.58 56.73 404.58 C 56.18 408.41 55.01 414.95 57.74 418.15 C 60.15 420.99 64.63 420.57 68 420.58 C 68 420.58 273 420.58 273 420.58 C 276.41 420.57 279.76 420.7 283 419.43 C 293.15 415.46 295.46 399.86 299.43 390.58 C 305.85 375.56 315.71 359 326.3 346.58 C 360.65 306.28 409.44 285.97 462 286.58 C 462 286.58 472 287.49 472 287.49 C 517.54 290.82 559.73 315.72 587.58 351.58 C 597.75 364.68 605.86 379.19 612 394.58 C 614.65 401.23 617.54 415.16 623.04 418.85 C 628.7 422.64 636.57 420.59 643 420.58 C 643 420.58 844 420.58 844 420.58 C 847.58 420.57 851.74 421.04 853.77 417.43 C 855.48 414.57 854.16 407.94 853.77 404.58 C 853.77 404.58 848.4 372.58 848.4 372.58 C 838.45 323.14 819.84 277.84 792.31 235.58 C 732.24 143.38 631.69 76.49 523 58.5 C 510.5 56.43 491.4 53.6 479 53.58 C 479 53.58 448 52.86 448 52.86 Z M 442 336.86 C 433.94 338.05 426.84 339.12 419 341.61 C 388.87 351.16 363.13 373.13 349.26 401.58 C 342.66 415.12 337.02 434.48 337 449.58 C 337 449.58 337 463.58 337 463.58 C 337.01 472.39 338.81 481.14 341.29 489.58 C 354.96 536.01 401.05 573 450 573.58 C 469.81 573.81 486.88 571.36 505 562.8 C 519.36 556.02 534.15 545.74 544.41 533.58 C 553.06 523.33 560.49 512.06 565.55 499.58 C 583.25 455.88 572.57 402.25 538 369.67 C 523.24 355.76 507.24 346.94 488 340.93 C 474.77 336.79 455.8 335.58 442 336.86 Z M 446 398.02 C 467.49 395.26 487.96 402.04 501.47 419.58 C 523.26 447.86 513.62 491.76 481 507.09 C 470.98 511.8 462.86 512.7 452 512.58 C 410.6 512.09 385.78 466.99 402.31 430.58 C 410.81 411.86 426.25 401.67 446 398.02 Z M 66 488.68 C 62.63 489.44 59.03 489.81 56.85 492.81 C 54.23 496.41 55.15 501.5 55.73 505.58 C 55.73 505.58 60.6 533.58 60.6 533.58 C 69.43 577.44 85.8 622.17 108.8 660.58 C 161.05 747.83 252.24 818.42 351 844.46 C 371.97 849.99 393.35 854.09 415 855.67 C 415 855.67 425 856.58 425 856.58 C 425 856.58 453 857.58 453 857.58 C 453 857.58 466 856.58 466 856.58 C 495.98 856.23 527.89 850.96 557 843.69 C 644.81 821.73 724.39 768.43 778.12 695.58 C 810.96 651.05 836.74 596.94 848 542.58 C 848 542.58 854.07 505.58 854.07 505.58 C 854.59 501.95 855.94 495.02 854.07 491.81 C 851.73 488.13 846.72 488.59 843 488.58 C 843 488.58 633 488.58 633 488.58 C 628.07 488.59 623.42 488.25 620.22 492.79 C 620.22 492.79 611.2 517.58 611.2 517.58 C 605.72 531.24 597.35 545.96 588.34 557.58 C 557.87 596.84 514.2 619.29 465 622.67 C 460.63 622.97 459.03 623.74 454 623.54 C 454 623.54 446 622.67 446 622.67 C 397.02 619.3 354.68 598.02 323.61 559.58 C 312.73 546.12 303.03 528.96 297.34 512.58 C 295.23 506.48 292.54 492.72 286.96 489.75 C 284.36 488.37 280.88 488.58 278 488.68 C 278 488.68 139 488.68 139 488.68 C 139 488.68 66 488.68 66 488.68 Z"/>
  <path id="pokeball_czerwony" fill="none" stroke="black" stroke-width="0.1" d="M 440 54 C 452.49 52.48 465.53 53.64 478 54.58 C 478 54.58 487 54.58 487 54.58 C 487 54.58 528 60.16 528 60.16 C 635.48 79.54 731.1 144.83 791.33 235.58 C 818.14 275.97 837.83 324.05 847.4 371.58 C 847.4 371.58 852.27 399.58 852.27 399.58 C 852.27 399.58 853.84 414.56 853.84 414.56 C 852.93 421.22 843.1 420.57 838 420.58 C 838 420.58 636 420.58 636 420.58 C 630.71 420.57 625.24 420.79 621.42 416.44 C 618.68 413.33 613.82 396.93 611.58 391.58 C 604.92 375.71 598.19 364.19 587.58 350.58 C 563.42 319.59 528.67 296.81 490 289.03 C 481.87 287.39 474.2 287.05 466 286.49 C 466 286.49 458 285.66 458 285.66 C 458 285.66 449 286.54 449 286.54 C 400.13 288.67 357.15 308.92 325.44 346.58 C 315.52 358.36 305.49 374.39 299.43 388.58 C 296.11 396.34 292.45 412.25 285.96 417.07 C 281.94 420.06 269.25 420.57 264 420.58 C 264 420.58 71 420.58 71 420.58 C 67.33 420.57 61.45 420.79 58.74 417.88 C 56.22 415.19 56.93 408.02 57.43 404.58 C 57.43 404.58 63.79 370.58 63.79 370.58 C 74.57 320.61 93.6 272.18 122 229.58 C 175.35 149.56 259.85 93.62 352 68 C 372.63 62.27 393.75 58.4 415 55.86 C 415 55.86 440 54 440 54 Z"/>
  <path id="pokeball_bialy" fill="none" stroke="black" stroke-width="0.1" d="M 440 338 C 455.71 336.09 475.91 337.82 491 342.61 C 555.48 363.04 588.89 433.83 565.68 496.58 C 561.06 509.07 552.98 522.83 543.91 532.58 C 532.63 544.71 522.86 552.9 508 560.33 C 487.25 570.71 470.78 572.84 448 572.58 C 441.86 572.5 433.02 570.92 427 569.45 C 388.93 560.15 356.87 531.6 343.7 494.58 C 335.22 470.77 335.54 444.66 342.72 420.58 C 351.67 390.56 373.92 363.43 402 349.39 C 414.08 343.34 426.72 340.01 440 338 Z M 448 396.87 C 431.99 399.31 418.74 405.58 408.52 418.58 C 401.02 428.11 398.26 436.78 396.85 448.58 C 392.77 482.67 418.17 513.17 453 513.58 C 462.3 513.68 470.38 512.55 479 508.84 C 516.99 492.48 525.87 441.78 496.83 412.75 C 483.92 399.84 465.78 395.2 448 396.87 Z M 64 489.7 C 64 489.7 90 489.7 90 489.7 C 90 489.7 136 489.7 136 489.7 C 136 489.7 278 489.7 278 489.7 C 280.78 489.58 284.42 489.37 286.89 490.75 C 291.76 493.48 294.7 507.98 296.69 513.58 C 303.5 532.7 314.27 550.21 327.43 565.58 C 353.66 596.21 391.24 616.26 431 622.15 C 442.65 623.88 454.25 623.71 466 623.58 C 474.21 623.48 487.89 620.97 496 618.95 C 534.72 609.32 567.74 586.44 591.63 554.58 C 599.78 543.7 607.73 529.31 612.58 516.58 C 612.58 516.58 620.72 493.69 620.72 493.69 C 623.95 489.23 628.11 489.59 633 489.58 C 633 489.58 803 489.58 803 489.58 C 803 489.58 846 489.58 846 489.58 C 853.96 489.73 854.15 492.33 853.99 499.58 C 853.76 509.64 848.39 537.01 845.88 547.58 C 839.41 574.83 830.47 601.34 818.26 626.58 C 799.05 666.27 776.04 700.24 745.91 732.58 C 736.89 742.26 727.01 751.09 717 759.71 C 638.5 827.31 540.63 857.78 438 856.58 C 438 856.58 427 855.62 427 855.62 C 300.75 850.11 175.55 769.95 111 662.58 C 87.44 623.39 70.62 579.42 61.6 534.58 C 61.6 534.58 56.73 506.58 56.73 506.58 C 55.52 498.11 54.19 492.5 64 489.7 Z"/>
</svg>