<?xml version="1.0" encoding="utf-8"?>
<svg viewBox="0 0 447 886" xmlns="http://www.w3.org/2000/svg">
  <path id="pokedex silver" fill="#e1e0f2" stroke="black" stroke-width="1" d="M -305.609 565.689 C -305.609 565.689 -307.109 569.189 -307.109 569.189 C -307.109 569.189 -309.949 569.789 -312.109 568.809 C -313.749 568.069 -315.609 566.439 -315.609 566.439 C -315.609 566.439 -315.859 555.939 -315.859 555.939 C -315.859 555.939 -314.569 554.259 -312.739 553.309 C -310.709 552.269 -308.109 551.939 -308.109 551.939 C -308.109 551.939 -193.609 552.189 -192.859 552.189 C -192.499 552.189 -190.839 551.809 -189.719 550.919 C -188.509 549.939 -187.859 548.439 -187.859 548.439 C -187.859 548.439 -139.859 320.189 126.311 315.859 C 172.721 318.169 212.161 323.839 246.191 336.279 C 408.131 395.499 440.391 547.189 440.391 547.189 C 440.391 547.189 440.891 549.179 442.261 550.189 C 443.761 551.299 446.141 551.439 446.141 551.439 C 446.141 551.439 564.641 551.939 564.641 551.939 C 564.641 551.939 567.241 552.569 568.391 553.439 C 569.551 554.319 569.261 555.439 569.391 555.439 C 569.641 555.439 569.391 566.939 569.391 566.939 C 569.391 566.939 567.611 568.479 565.641 569.069 C 563.381 569.729 560.891 569.439 560.891 569.439 C 560.891 569.439 560.961 568.259 560.141 567.439 C 559.481 566.779 557.891 566.439 557.891 566.439 C 557.891 566.439 416.391 564.939 416.391 564.939 C 416.391 564.939 389.731 416.869 245.821 359.739 C 213.071 346.729 171.191 335.679 125.281 335.549 C -128.059 347.219 -162.859 565.189 -162.859 565.189 C -162.859 565.189 -305.609 565.689 -305.609 565.689 Z M 389.141 419.439" transform="matrix(0, 1, -1, 0, 569.502267, 315.859105)"/>
  <path id="pokedex black" stroke="black" stroke-width="1" d="M -68.56 391.203 C -155.06 458.703 -170.89 556.703 -170.89 556.703 C -170.89 556.703 -81.56 557.703 -81.56 557.703 C -81.56 557.703 -45.06 414.203 116.44 414.703 C 267.94 409.203 317.77 556.373 317.77 556.373 C 317.77 556.373 407.44 557.253 407.44 557.253 C 407.44 557.253 386.94 442.203 293.94 381.203 C 214.94 325.203 118.35 327.063 118.35 327.063 C 118.35 327.063 21.44 321.703 -68.56 391.203 Z" fill="#585465" transform="matrix(0, 1, -1, 0, 560.610177, 324.060185)"/>
  <path id="pokedex red" fill="#d43f59" stroke="black" stroke-width="1" d="M 671.017 654.556 C 670.317 655.326 669.897 656.246 669.897 656.246 C 669.897 656.246 550.897 656.496 550.897 656.496 C 550.897 656.496 549.117 656.546 548.117 655.896 C 546.687 654.976 545.897 653.246 545.897 653.246 C 545.897 653.246 485.897 418.246 231.397 420.246 C -32.103 428.246 -83.103 652.996 -83.103 652.996 C -83.103 652.996 -83.433 655.016 -84.223 656.246 C -84.743 657.036 -85.853 657.246 -85.853 657.246 C -85.853 657.246 -206.603 656.496 -206.603 656.496 C -206.603 656.496 -206.313 655.226 -207.013 654.606 C -208.073 653.676 -210.253 653.246 -210.103 653.246 C -209.853 653.246 -208.923 494.426 -208.923 494.426 C -208.923 494.426 -207.743 494.126 -206.853 493.626 C -205.683 492.966 -203.983 491.626 -203.983 491.626 C -203.983 491.626 -204.013 484.426 -204.013 484.426 C -204.013 484.426 -205.833 483.546 -206.913 482.366 C -207.923 481.276 -207.853 479.686 -207.853 479.686 C -207.853 479.686 -205.653 351.516 -205.653 351.516 C -205.653 351.516 -204.483 351.396 -203.193 350.516 C -202.103 349.776 -200.833 348.246 -200.923 348.246 C -201.103 348.246 -201.463 338.606 -201.463 338.606 C -201.463 338.606 -202.733 338.946 -203.553 338.246 C -204.533 337.416 -205.103 335.516 -205.103 335.516 C -205.103 335.516 -207.203 281.686 -180.353 255.496 C -150.603 223.996 -94.723 227.866 -94.723 227.866 C -94.723 227.866 -94.753 228.876 -94.293 229.836 C -93.993 230.466 -93.133 231.216 -93.133 231.216 C -93.133 231.216 -83.983 231.406 -83.983 231.406 C -83.983 231.406 -82.783 230.546 -82.043 229.586 C -81.493 228.886 -81.353 227.996 -81.353 227.996 C -81.353 227.996 43.867 227.896 44.117 227.766 C 44.287 227.686 44.277 228.856 44.727 229.816 C 44.937 230.256 45.807 230.956 45.807 230.896 C 45.807 230.896 55.897 230.866 56.017 230.866 C 56.077 230.866 57.157 229.836 57.767 228.946 C 58.547 227.806 58.897 226.746 58.897 226.746 C 58.897 226.746 403.807 226.976 403.987 226.976 C 404.067 226.976 405.127 228.666 405.987 229.426 C 407.137 230.446 408.167 230.606 408.167 230.606 C 408.167 230.606 417.077 230.516 417.077 230.516 C 417.077 230.516 418.707 229.836 419.627 229.246 C 420.917 228.426 421.627 227.336 421.627 227.336 C 421.627 227.336 543.777 227.626 544.147 227.626 C 544.317 227.626 544.637 228.896 545.457 229.746 C 546.487 230.806 548.017 231.496 548.017 231.496 C 548.017 231.496 555.277 231.366 555.277 231.366 C 555.277 231.366 557.197 230.726 558.087 229.806 C 559.067 228.796 559.017 227.496 559.017 227.496 C 559.017 227.496 612.867 224.416 638.647 249.996 C 674.147 279.246 668.647 336.246 668.647 336.246 C 668.647 336.246 667.157 336.806 666.377 337.726 C 665.667 338.556 664.987 339.856 664.987 339.856 C 664.987 339.856 665.197 347.726 665.197 347.726 C 665.197 347.726 666.987 348.656 668.157 350.116 C 669.127 351.326 669.517 353.126 669.517 353.126 C 669.517 353.126 670.897 480.796 670.897 480.796 C 670.897 480.796 669.397 481.236 668.637 481.856 C 667.647 482.666 667.347 483.696 667.347 483.696 C 667.347 483.696 667.537 491.516 667.537 491.606 C 667.537 491.646 668.617 493.146 669.547 493.816 C 670.817 494.726 672.017 494.866 672.017 494.866 C 672.017 494.866 672.897 652.976 672.897 652.976 C 672.897 652.976 671.817 653.696 671.017 654.556 Z" transform="matrix(0, 1, -1, 0, 673.389292, 210.602664)"/>
  <path id="pokedex dark red" fill="#b8374e" stroke="black" stroke-width="1" d="M 667.615 654.559 C 667.615 654.559 667.645 652.459 666.755 651.439 C 665.665 650.209 663.615 650.009 663.615 650.009 C 663.615 650.009 558.155 648.919 558.155 648.919 C 558.155 648.919 525.385 539.009 437.385 477.509 C 365.385 416.009 257.245 410.009 257.245 410.009 C 257.245 410.009 257.345 398.249 250.765 389.889 C 245.945 383.759 235.305 380.329 229.635 380.259 C 223.225 380.179 213.685 383.979 208.765 390.509 C 202.815 398.399 202.105 409.279 202.155 409.279 C 202.235 409.279 105.215 414.679 21.885 476.259 C -70.445 545.339 -99.245 648.479 -98.935 648.369 C -98.385 648.189 -207.615 650.759 -207.615 650.759 C -207.615 650.759 -209.365 655.259 -209.115 655.259 C -208.865 655.259 -87.615 654.509 -87.365 654.509 C -87.295 654.509 -62.865 558.509 12.215 495.339 C 74.885 444.339 161.125 417.889 231.065 417.829 C 297.235 417.769 381.385 443.509 431.885 484.509 C 518.385 548.009 546.135 653.949 546.135 653.949 C 546.135 653.949 667.615 654.559 667.615 654.559 Z M 459.885 387.009 C 405.385 315.009 405.075 228.449 405.075 228.449 C 405.075 228.449 416.265 228.629 416.265 228.629 C 416.265 228.629 418.005 229.709 418.885 231.069 C 419.925 232.689 420.135 234.629 420.135 234.629 C 420.135 234.629 418.885 323.279 492.385 398.509 C 567.135 474.259 662.765 475.759 662.765 475.759 C 662.765 475.759 663.975 475.829 664.825 476.569 C 665.525 477.189 665.575 478.699 665.575 478.699 C 665.575 478.699 665.265 489.509 665.265 489.509 C 665.265 489.509 541.555 486.679 459.885 387.009 Z M 584.385 310.509 C 612.385 342.759 663.265 345.949 663.265 345.949 C 663.265 345.949 663.135 335.759 663.135 335.759 C 663.135 335.759 662.515 333.439 661.075 331.949 C 659.405 330.209 656.885 329.259 656.885 329.259 C 656.885 329.259 621.885 328.759 592.885 299.009 C 566.385 271.259 559.885 232.009 559.885 232.009 C 559.885 232.009 559.475 230.899 558.575 230.259 C 557.385 229.429 555.635 229.009 555.635 229.009 C 555.635 229.009 545.885 228.759 545.885 228.759 C 545.885 228.759 553.885 282.509 584.385 310.509 Z M 54.795 228.739 C 54.795 228.739 51.215 339.679 -17.295 404.559 C -88.115 483.339 -205.615 490.009 -205.615 490.009 C -205.615 490.009 -206.115 477.759 -206.115 477.759 C -206.115 477.759 -205.805 476.679 -204.755 475.919 C -203.565 475.059 -201.615 474.509 -201.615 474.509 C -201.615 474.509 -97.115 467.509 -25.785 391.009 C 33.865 331.229 40.155 232.189 40.155 232.189 C 40.155 232.189 40.445 231.309 41.245 230.459 C 42.085 229.579 43.435 228.739 43.435 228.739 C 43.435 228.739 54.795 228.739 54.795 228.739 Z M -124.445 309.679 C -95.265 280.769 -86.115 230.129 -86.115 230.129 C -86.115 230.129 -98.495 230.389 -98.495 230.389 C -98.495 230.389 -108.115 271.339 -134.115 299.679 C -158.025 325.829 -201.115 331.009 -201.115 331.009 C -201.115 331.009 -202.875 332.449 -203.935 334.189 C -204.755 335.539 -204.115 337.189 -204.115 337.189 C -204.115 337.189 -203.665 346.559 -203.665 346.559 C -203.665 346.559 -154.115 342.009 -124.445 309.679 Z" transform="matrix(0, 1, -1, 0, 671.091868, 212.616168)"/>
  <ellipse style="stroke: rgb(0, 0, 0); fill: rgb(88, 84, 101);" cx="223.141" cy="393.359" rx="13.457" ry="12.806" transform="matrix(0, 1, -1, 0, 666.002207, 219.35921)"/>
  <ellipse style="stroke: rgb(0, 0, 0); fill: rgb(51, 168, 211);" cx="223.141" cy="392.359" rx="5.209" ry="5.209" transform="matrix(0, 1, -1, 0, 666.002207, 219.35921)"/>
</svg>